# xmcd
#
# Track frame offsets:
# 150
# 23876
# 41611
# 63400
# 89917
# 108932
# 132472
# 151570
# 174333
# 210535
# 240198
# 276400
#
# Disc length: 3999 seconds
#
# Revision: 0
# Processed by: cddbd v1.5.2PL0 Copyright (c) Steve Scherf et al.
# Submitted via: Audion 3.0.2 (http://www.panic.com/audion/)
#
DISCID=9d0f9d0c
DTITLE=Avenged Sevenfold - Avenged Sevenfold
DYEAR=1900
DGENRE=
TTITLE0=Critical Acclaim (clean)
TTITLE1=Almost Easy
TTITLE2=Scream
TTITLE3=Afterlife
TTITLE4=Gunslinger
TTITLE5=Unbound(The Wild Ride)
TTITLE6=Brompton Cocktail
TTITLE7=Lost
TTITLE8=Little Piece of Heaven (clean)
TTITLE9=Dear God
TTITLE10=Little Piece of Heaven
TTITLE11=Critical Acclaim
EXTD=
EXTT0=
EXTT1=
EXTT2=
EXTT3=
EXTT4=
EXTT5=
EXTT6=
EXTT7=
EXTT8=
EXTT9=
EXTT10=
EXTT11=
PLAYORDER=
